<?xml version="1.0" encoding="UTF-8" standalone="no"?>
<!DOCTYPE svg PUBLIC "-//W3C//DTD SVG 1.1//EN"
 "http://www.w3.org/Graphics/SVG/1.1/DTD/svg11.dtd">
<!-- Generated by graphviz version 14.1.3 (20260303.0454)
 -->
<!-- Title: G Pages: 1 -->
<svg width="1057pt" height="598pt"
 viewBox="0.00 0.00 1057.00 598.00" xmlns="http://www.w3.org/2000/svg" xmlns:xlink="http://www.w3.org/1999/xlink">
<g id="graph0" class="graph" transform="scale(1 1) rotate(0) translate(18 579.6)">
<title>G</title>
<polygon fill="white" stroke="none" points="-18,18 -18,-579.6 1039.23,-579.6 1039.23,18 -18,18"/>
<text xml:space="preserve" text-anchor="middle" x="510.62" y="-537.8" font-family="Helvetica,sans-Serif" font-size="22.00" fill="#12355b">Figure 1. Hybrid wallet&#45;control architecture</text>
<text xml:space="preserve" text-anchor="middle" x="510.62" y="-511.4" font-family="Helvetica,sans-Serif" font-size="22.00" fill="#12355b">Hard rules are non&#45;compensatory; graph and probabilistic components provide context and uncertainty.</text>
<!-- history -->
<g id="node1" class="node">
<title>history</title>
<path fill="#eaf2fc" stroke="#246bce" stroke-width="1.7" d="M236.4,-494.2C236.4,-494.2 100.69,-494.2 100.69,-494.2 94.69,-494.2 88.69,-488.2 88.69,-482.2 88.69,-482.2 88.69,-465.4 88.69,-465.4 88.69,-459.4 94.69,-453.4 100.69,-453.4 100.69,-453.4 236.4,-453.4 236.4,-453.4 242.4,-453.4 248.4,-459.4 248.4,-465.4 248.4,-465.4 248.4,-482.2 248.4,-482.2 248.4,-488.2 242.4,-494.2 236.4,-494.2"/>
<text xml:space="preserve" text-anchor="middle" x="168.55" y="-477.1" font-family="Helvetica,sans-Serif" font-size="11.00" fill="#17212b">Historical transactions</text>
<text xml:space="preserve" text-anchor="middle" x="168.55" y="-463.9" font-family="Helvetica,sans-Serif" font-size="11.00" fill="#17212b">sample today; 100M+ target</text>
</g>
<!-- builder -->
<g id="node2" class="node">
<title>builder</title>
<path fill="#e7f7f6" stroke="#159a9c" stroke-width="1.7" stroke-dasharray="5,2" d="M467.36,-494.2C467.36,-494.2 323.73,-494.2 323.73,-494.2 317.73,-494.2 311.73,-488.2 311.73,-482.2 311.73,-482.2 311.73,-465.4 311.73,-465.4 311.73,-459.4 317.73,-453.4 323.73,-453.4 323.73,-453.4 467.36,-453.4 467.36,-453.4 473.36,-453.4 479.36,-459.4 479.36,-465.4 479.36,-465.4 479.36,-482.2 479.36,-482.2 479.36,-488.2 473.36,-494.2 467.36,-494.2"/>
<text xml:space="preserve" text-anchor="middle" x="395.55" y="-477.1" font-family="Helvetica,sans-Serif" font-size="11.00" fill="#17212b">Knowledge builder</text>
<text xml:space="preserve" text-anchor="middle" x="395.55" y="-463.9" font-family="Helvetica,sans-Serif" font-size="11.00" fill="#17212b">batch + streaming summaries</text>
</g>
<!-- history&#45;&gt;builder -->
<g id="edge1" class="edge">
<title>history&#45;&gt;builder</title>
<path fill="none" stroke="#12355b" stroke-width="1.5" d="M249.24,-473.8C266.6,-473.8 283.96,-473.8 301.32,-473.8"/>
<polygon fill="#12355b" stroke="#12355b" stroke-width="1.5" points="301.19,-476.43 308.69,-473.8 301.19,-471.18 301.19,-476.43"/>
</g>
<!-- knowledge -->
<g id="node3" class="node">
<title>knowledge</title>
<path fill="#e7f7f6" stroke="#159a9c" stroke-width="1.7" stroke-dasharray="5,2" d="M708.1,-500.8C708.1,-500.8 554.99,-500.8 554.99,-500.8 548.99,-500.8 542.99,-494.8 542.99,-488.8 542.99,-488.8 542.99,-458.8 542.99,-458.8 542.99,-452.8 548.99,-446.8 554.99,-446.8 554.99,-446.8 708.1,-446.8 708.1,-446.8 714.1,-446.8 720.1,-452.8 720.1,-458.8 720.1,-458.8 720.1,-488.8 720.1,-488.8 720.1,-494.8 714.1,-500.8 708.1,-500.8"/>
<text xml:space="preserve" text-anchor="middle" x="631.55" y="-483.7" font-family="Helvetica,sans-Serif" font-size="11.00" fill="#17212b">Online knowledge projection</text>
<text xml:space="preserve" text-anchor="middle" x="631.55" y="-470.5" font-family="Helvetica,sans-Serif" font-size="11.00" fill="#17212b">card–merchant • card–device</text>
<text xml:space="preserve" text-anchor="middle" x="631.55" y="-457.3" font-family="Helvetica,sans-Serif" font-size="11.00" fill="#17212b">category • rolling activity</text>
</g>
<!-- builder&#45;&gt;knowledge -->
<g id="edge2" class="edge">
<title>builder&#45;&gt;knowledge</title>
<path fill="none" stroke="#12355b" stroke-width="1.5" d="M479.9,-473.8C497.47,-473.8 515.05,-473.8 532.63,-473.8"/>
<polygon fill="#12355b" stroke="#12355b" stroke-width="1.5" points="532.62,-476.43 540.12,-473.8 532.62,-471.18 532.62,-476.43"/>
</g>
<!-- context -->
<g id="node5" class="node">
<title>context</title>
<path fill="#e7f7f6" stroke="#159a9c" stroke-width="1.7" stroke-dasharray="5,2" d="M706.14,-396C706.14,-396 556.95,-396 556.95,-396 550.95,-396 544.95,-390 544.95,-384 544.95,-384 544.95,-367.2 544.95,-367.2 544.95,-361.2 550.95,-355.2 556.95,-355.2 556.95,-355.2 706.14,-355.2 706.14,-355.2 712.14,-355.2 718.14,-361.2 718.14,-367.2 718.14,-367.2 718.14,-384 718.14,-384 718.14,-390 712.14,-396 706.14,-396"/>
<text xml:space="preserve" text-anchor="middle" x="631.55" y="-378.9" font-family="Helvetica,sans-Serif" font-size="11.00" fill="#17212b">Context retrieval</text>
<text xml:space="preserve" text-anchor="middle" x="631.55" y="-365.7" font-family="Helvetica,sans-Serif" font-size="11.00" fill="#17212b">evidence bundle + provenance</text>
</g>
<!-- knowledge&#45;&gt;context -->
<g id="edge4" class="edge">
<title>knowledge&#45;&gt;context</title>
<path fill="none" stroke="#159a9c" stroke-width="1.5" d="M631.55,-446C631.55,-433.72 631.55,-419.11 631.55,-406.48"/>
<polygon fill="#159a9c" stroke="#159a9c" stroke-width="1.5" points="634.17,-406.62 631.55,-399.12 628.92,-406.62 634.17,-406.62"/>
<text xml:space="preserve" text-anchor="middle" x="663.58" y="-418.7" font-family="Helvetica,sans-Serif" font-size="9.00" fill="#159a9c">bounded lookup</text>
</g>
<!-- request -->
<g id="node4" class="node">
<title>request</title>
<path fill="#eaf2fc" stroke="#246bce" stroke-width="1.7" d="M469.32,-396C469.32,-396 309.77,-396 309.77,-396 303.77,-396 297.77,-390 297.77,-384 297.77,-384 297.77,-367.2 297.77,-367.2 297.77,-361.2 303.77,-355.2 309.77,-355.2 309.77,-355.2 469.32,-355.2 469.32,-355.2 475.32,-355.2 481.32,-361.2 481.32,-367.2 481.32,-367.2 481.32,-384 481.32,-384 481.32,-390 475.32,-396 469.32,-396"/>
<text xml:space="preserve" text-anchor="middle" x="389.55" y="-378.9" font-family="Helvetica,sans-Serif" font-size="11.00" fill="#17212b">New authorization</text>
<text xml:space="preserve" text-anchor="middle" x="389.55" y="-365.7" font-family="Helvetica,sans-Serif" font-size="11.00" fill="#17212b">transaction + confirmed mandate</text>
</g>
<!-- request&#45;&gt;context -->
<g id="edge3" class="edge">
<title>request&#45;&gt;context</title>
<path fill="none" stroke="#12355b" stroke-width="1.5" d="M481.71,-375.6C499.49,-375.6 517.27,-375.6 535.04,-375.6"/>
<polygon fill="#12355b" stroke="#12355b" stroke-width="1.5" points="534.57,-378.23 542.07,-375.6 534.57,-372.98 534.57,-378.23"/>
</g>
<!-- rules -->
<g id="node6" class="node">
<title>rules</title>
<path fill="#eaf7ec" stroke="#238636" stroke-width="1.7" d="M234.3,-304.4C234.3,-304.4 92.79,-304.4 92.79,-304.4 86.79,-304.4 80.79,-298.4 80.79,-292.4 80.79,-292.4 80.79,-262.4 80.79,-262.4 80.79,-256.4 86.79,-250.4 92.79,-250.4 92.79,-250.4 234.3,-250.4 234.3,-250.4 240.3,-250.4 246.3,-256.4 246.3,-262.4 246.3,-262.4 246.3,-292.4 246.3,-292.4 246.3,-298.4 240.3,-304.4 234.3,-304.4"/>
<text xml:space="preserve" text-anchor="middle" x="163.55" y="-287.3" font-family="Helvetica,sans-Serif" font-size="11.00" fill="#17212b">Deterministic rule engine</text>
<text xml:space="preserve" text-anchor="middle" x="163.55" y="-274.1" font-family="Helvetica,sans-Serif" font-size="11.00" fill="#17212b">amount • mandate • basket</text>
<text xml:space="preserve" text-anchor="middle" x="163.55" y="-260.9" font-family="Helvetica,sans-Serif" font-size="11.00" fill="#17212b">merchant • velocity</text>
</g>
<!-- context&#45;&gt;rules -->
<g id="edge5" class="edge">
<title>context&#45;&gt;rules</title>
<path fill="none" stroke="#12355b" stroke-width="1.5" d="M544.34,-356.67C462.35,-339.82 340.02,-314.67 256.27,-297.46"/>
<polygon fill="#12355b" stroke="#12355b" stroke-width="1.5" points="256.86,-294.9 248.99,-295.96 255.81,-300.04 256.86,-294.9"/>
<text xml:space="preserve" text-anchor="middle" x="448.97" y="-327.1" font-family="Helvetica,sans-Serif" font-size="9.00" fill="#12355b">facts</text>
</g>
<!-- gaussian -->
<g id="node7" class="node">
<title>gaussian</title>
<path fill="#f2ecfb" stroke="#6f42c1" stroke-width="1.7" stroke-dasharray="5,2" d="M711.18,-297.8C711.18,-297.8 551.91,-297.8 551.91,-297.8 545.91,-297.8 539.91,-291.8 539.91,-285.8 539.91,-285.8 539.91,-269 539.91,-269 539.91,-263 545.91,-257 551.91,-257 551.91,-257 711.18,-257 711.18,-257 717.18,-257 723.18,-263 723.18,-269 723.18,-269 723.18,-285.8 723.18,-285.8 723.18,-291.8 717.18,-297.8 711.18,-297.8"/>
<text xml:space="preserve" text-anchor="middle" x="631.55" y="-280.7" font-family="Helvetica,sans-Serif" font-size="11.00" fill="#17212b">Gaussian anomaly model</text>
<text xml:space="preserve" text-anchor="middle" x="631.55" y="-267.5" font-family="Helvetica,sans-Serif" font-size="11.00" fill="#17212b">continuous behavioural deviation</text>
</g>
<!-- context&#45;&gt;gaussian -->
<g id="edge6" class="edge">
<title>context&#45;&gt;gaussian</title>
<path fill="none" stroke="#6f42c1" stroke-width="1.5" d="M631.55,-354.67C631.55,-341.21 631.55,-323.22 631.55,-308.09"/>
<polygon fill="#6f42c1" stroke="#6f42c1" stroke-width="1.5" points="634.17,-308.41 631.55,-300.91 628.92,-308.41 634.17,-308.41"/>
<text xml:space="preserve" text-anchor="middle" x="663.31" y="-327.1" font-family="Helvetica,sans-Serif" font-size="9.00" fill="#6f42c1">numeric context</text>
</g>
<!-- bayes -->
<g id="node8" class="node">
<title>bayes</title>
<path fill="#f2ecfb" stroke="#6f42c1" stroke-width="1.7" stroke-dasharray="5,2" d="M928.44,-297.8C928.44,-297.8 804.65,-297.8 804.65,-297.8 798.65,-297.8 792.65,-291.8 792.65,-285.8 792.65,-285.8 792.65,-269 792.65,-269 792.65,-263 798.65,-257 804.65,-257 804.65,-257 928.44,-257 928.44,-257 934.44,-257 940.44,-263 940.44,-269 940.44,-269 940.44,-285.8 940.44,-285.8 940.44,-291.8 934.44,-297.8 928.44,-297.8"/>
<text xml:space="preserve" text-anchor="middle" x="866.55" y="-280.7" font-family="Helvetica,sans-Serif" font-size="11.00" fill="#17212b">Bayesian evidence fusion</text>
<text xml:space="preserve" text-anchor="middle" x="866.55" y="-267.5" font-family="Helvetica,sans-Serif" font-size="11.00" fill="#17212b">posterior uncertainty</text>
</g>
<!-- context&#45;&gt;bayes -->
<g id="edge7" class="edge">
<title>context&#45;&gt;bayes</title>
<path fill="none" stroke="#6f42c1" stroke-width="1.5" d="M680.81,-354.43C718.1,-339.17 769.41,-318.16 808.66,-302.1"/>
<polygon fill="#6f42c1" stroke="#6f42c1" stroke-width="1.5" points="809.3,-304.67 815.25,-299.4 807.31,-299.81 809.3,-304.67"/>
<text xml:space="preserve" text-anchor="middle" x="784.07" y="-327.1" font-family="Helvetica,sans-Serif" font-size="9.00" fill="#6f42c1">discrete evidence</text>
</g>
<!-- policy -->
<g id="node9" class="node">
<title>policy</title>
<path fill="#fff4de" stroke="#d97706" stroke-width="1.7" stroke-dasharray="5,2" d="M594.63,-199.6C594.63,-199.6 434.46,-199.6 434.46,-199.6 428.46,-199.6 422.46,-193.6 422.46,-187.6 422.46,-187.6 422.46,-170.8 422.46,-170.8 422.46,-164.8 428.46,-158.8 434.46,-158.8 434.46,-158.8 594.63,-158.8 594.63,-158.8 600.63,-158.8 606.63,-164.8 606.63,-170.8 606.63,-170.8 606.63,-187.6 606.63,-187.6 606.63,-193.6 600.63,-199.6 594.63,-199.6"/>
<text xml:space="preserve" text-anchor="middle" x="514.55" y="-182.5" font-family="Helvetica,sans-Serif" font-size="11.00" fill="#17212b">Hierarchical decision policy</text>
<text xml:space="preserve" text-anchor="middle" x="514.55" y="-169.3" font-family="Helvetica,sans-Serif" font-size="11.00" fill="#17212b">hard gate + uncertainty threshold</text>
</g>
<!-- rules&#45;&gt;policy -->
<g id="edge9" class="edge">
<title>rules&#45;&gt;policy</title>
<path fill="none" stroke="#238636" stroke-width="1.5" d="M246.73,-253.6C302.61,-238.29 375.95,-218.19 431.75,-202.89"/>
<polygon fill="#238636" stroke="#238636" stroke-width="1.5" points="432.17,-205.5 438.71,-200.98 430.78,-200.44 432.17,-205.5"/>
<text xml:space="preserve" text-anchor="middle" x="389.49" y="-222.3" font-family="Helvetica,sans-Serif" font-size="9.00" fill="#238636">pass / fail</text>
</g>
<!-- note -->
<g id="node14" class="node">
<title>note</title>
<polygon fill="#fdebec" stroke="#c9363e" stroke-width="1.7" points="501.62,-302.6 309.47,-302.6 309.47,-252.2 507.62,-252.2 507.62,-296.6 501.62,-302.6"/>
<polyline fill="none" stroke="#c9363e" stroke-width="1.7" points="501.62,-302.6 501.62,-296.6"/>
<polyline fill="none" stroke="#c9363e" stroke-width="1.7" points="507.62,-296.6 501.62,-296.6"/>
<text xml:space="preserve" text-anchor="middle" x="408.55" y="-286.4" font-family="Helvetica,sans-Serif" font-size="10.00" fill="#c9363e">Design invariant:</text>
<text xml:space="preserve" text-anchor="middle" x="408.55" y="-274.4" font-family="Helvetica,sans-Serif" font-size="10.00" fill="#c9363e">a hard policy violation cannot be diluted</text>
<text xml:space="preserve" text-anchor="middle" x="408.55" y="-262.4" font-family="Helvetica,sans-Serif" font-size="10.00" fill="#c9363e">by graph or model scores.</text>
</g>
<!-- rules&#45;&gt;note -->
<g id="edge17" class="edge">
<title>rules&#45;&gt;note</title>
<path fill="none" stroke="#c9363e" stroke-width="1.5" stroke-dasharray="1,5" d="M246.81,-277.4C267.45,-277.4 288.08,-277.4 308.72,-277.4"/>
</g>
<!-- gaussian&#45;&gt;bayes -->
<g id="edge8" class="edge">
<title>gaussian&#45;&gt;bayes</title>
<path fill="none" stroke="#6f42c1" stroke-width="1.5" d="M723.75,-277.4C743.11,-277.4 763.43,-277.4 782.48,-277.4"/>
<polygon fill="#6f42c1" stroke="#6f42c1" stroke-width="1.5" points="782.24,-280.03 789.74,-277.4 782.24,-274.78 782.24,-280.03"/>
<text xml:space="preserve" text-anchor="middle" x="757.92" y="-283.1" font-family="Helvetica,sans-Serif" font-size="9.00" fill="#6f42c1">likelihood</text>
</g>
<!-- bayes&#45;&gt;policy -->
<g id="edge10" class="edge">
<title>bayes&#45;&gt;policy</title>
<path fill="none" stroke="#6f42c1" stroke-width="1.5" d="M792.76,-256.23C735.83,-240.67 657.06,-219.15 597.87,-202.97"/>
<polygon fill="#6f42c1" stroke="#6f42c1" stroke-width="1.5" points="598.66,-200.47 590.73,-201.02 597.27,-205.53 598.66,-200.47"/>
<text xml:space="preserve" text-anchor="middle" x="712.56" y="-222.3" font-family="Helvetica,sans-Serif" font-size="9.00" fill="#6f42c1">uncertainty</text>
</g>
<!-- approve -->
<g id="node10" class="node">
<title>approve</title>
<path fill="#eaf7ec" stroke="#238636" stroke-width="1.7" stroke-dasharray="5,2" d="M435.66,-117.8C435.66,-117.8 383.43,-117.8 383.43,-117.8 377.43,-117.8 371.43,-111.8 371.43,-105.8 371.43,-105.8 371.43,-93.8 371.43,-93.8 371.43,-87.8 377.43,-81.8 383.43,-81.8 383.43,-81.8 435.66,-81.8 435.66,-81.8 441.66,-81.8 447.66,-87.8 447.66,-93.8 447.66,-93.8 447.66,-105.8 447.66,-105.8 447.66,-111.8 441.66,-117.8 435.66,-117.8"/>
<text xml:space="preserve" text-anchor="middle" x="409.55" y="-96.5" font-family="Helvetica,sans-Serif" font-size="11.00" fill="#17212b">APPROVE</text>
</g>
<!-- policy&#45;&gt;approve -->
<g id="edge11" class="edge">
<title>policy&#45;&gt;approve</title>
<path fill="none" stroke="#238636" stroke-width="1.5" d="M487.23,-158.07C473.18,-147.71 455.98,-135.03 441.34,-124.24"/>
<polygon fill="#238636" stroke="#238636" stroke-width="1.5" points="442.93,-122.15 435.33,-119.81 439.81,-126.37 442.93,-122.15"/>
</g>
<!-- stepup -->
<g id="node11" class="node">
<title>stepup</title>
<path fill="#fff4de" stroke="#d97706" stroke-width="1.7" stroke-dasharray="5,2" d="M537.9,-117.8C537.9,-117.8 491.19,-117.8 491.19,-117.8 485.19,-117.8 479.19,-111.8 479.19,-105.8 479.19,-105.8 479.19,-93.8 479.19,-93.8 479.19,-87.8 485.19,-81.8 491.19,-81.8 491.19,-81.8 537.9,-81.8 537.9,-81.8 543.9,-81.8 549.9,-87.8 549.9,-93.8 549.9,-93.8 549.9,-105.8 549.9,-105.8 549.9,-111.8 543.9,-117.8 537.9,-117.8"/>
<text xml:space="preserve" text-anchor="middle" x="514.55" y="-96.5" font-family="Helvetica,sans-Serif" font-size="11.00" fill="#17212b">STEP&#45;UP</text>
</g>
<!-- policy&#45;&gt;stepup -->
<g id="edge12" class="edge">
<title>policy&#45;&gt;stepup</title>
<path fill="none" stroke="#d97706" stroke-width="1.5" d="M514.55,-158.27C514.55,-149.06 514.55,-137.99 514.55,-128.03"/>
<polygon fill="#d97706" stroke="#d97706" stroke-width="1.5" points="517.17,-128.32 514.55,-120.82 511.92,-128.32 517.17,-128.32"/>
</g>
<!-- decline -->
<g id="node12" class="node">
<title>decline</title>
<path fill="#fdebec" stroke="#c9363e" stroke-width="1.7" stroke-dasharray="5,2" d="M640.91,-117.8C640.91,-117.8 594.19,-117.8 594.19,-117.8 588.19,-117.8 582.19,-111.8 582.19,-105.8 582.19,-105.8 582.19,-93.8 582.19,-93.8 582.19,-87.8 588.19,-81.8 594.19,-81.8 594.19,-81.8 640.91,-81.8 640.91,-81.8 646.91,-81.8 652.91,-87.8 652.91,-93.8 652.91,-93.8 652.91,-105.8 652.91,-105.8 652.91,-111.8 646.91,-117.8 640.91,-117.8"/>
<text xml:space="preserve" text-anchor="middle" x="617.55" y="-96.5" font-family="Helvetica,sans-Serif" font-size="11.00" fill="#17212b">DECLINE</text>
</g>
<!-- policy&#45;&gt;decline -->
<g id="edge13" class="edge">
<title>policy&#45;&gt;decline</title>
<path fill="none" stroke="#c9363e" stroke-width="1.5" d="M541.34,-158.07C555.12,-147.71 571.99,-135.03 586.36,-124.24"/>
<polygon fill="#c9363e" stroke="#c9363e" stroke-width="1.5" points="587.81,-126.43 592.23,-119.83 584.65,-122.23 587.81,-126.43"/>
</g>
<!-- ledger -->
<g id="node13" class="node">
<title>ledger</title>
<path fill="#eaf2fc" stroke="#246bce" stroke-width="1.7" stroke-dasharray="5,2" d="M590.19,-40.8C590.19,-40.8 438.9,-40.8 438.9,-40.8 432.9,-40.8 426.9,-34.8 426.9,-28.8 426.9,-28.8 426.9,-12 426.9,-12 426.9,-6 432.9,0 438.9,0 438.9,0 590.19,0 590.19,0 596.19,0 602.19,-6 602.19,-12 602.19,-12 602.19,-28.8 602.19,-28.8 602.19,-34.8 596.19,-40.8 590.19,-40.8"/>
<text xml:space="preserve" text-anchor="middle" x="514.55" y="-23.7" font-family="Helvetica,sans-Serif" font-size="11.00" fill="#17212b">Decision ledger</text>
<text xml:space="preserve" text-anchor="middle" x="514.55" y="-10.5" font-family="Helvetica,sans-Serif" font-size="11.00" fill="#17212b">request • evidence • versions</text>
</g>
<!-- approve&#45;&gt;ledger -->
<g id="edge14" class="edge">
<title>approve&#45;&gt;ledger</title>
<path fill="none" stroke="#12355b" stroke-width="1.5" d="M433.64,-81.04C447.25,-71.01 464.5,-58.29 479.58,-47.17"/>
<polygon fill="#12355b" stroke="#12355b" stroke-width="1.5" points="480.93,-49.44 485.41,-42.88 477.81,-45.22 480.93,-49.44"/>
</g>
<!-- stepup&#45;&gt;ledger -->
<g id="edge15" class="edge">
<title>stepup&#45;&gt;ledger</title>
<path fill="none" stroke="#12355b" stroke-width="1.5" d="M514.55,-81.24C514.55,-72.41 514.55,-61.46 514.55,-51.35"/>
<polygon fill="#12355b" stroke="#12355b" stroke-width="1.5" points="517.17,-51.4 514.55,-43.9 511.92,-51.4 517.17,-51.4"/>
</g>
<!-- decline&#45;&gt;ledger -->
<g id="edge16" class="edge">
<title>decline&#45;&gt;ledger</title>
<path fill="none" stroke="#12355b" stroke-width="1.5" d="M593.92,-81.04C580.56,-71.01 563.63,-58.29 548.84,-47.17"/>
<polygon fill="#12355b" stroke="#12355b" stroke-width="1.5" points="550.72,-45.3 543.15,-42.89 547.57,-49.5 550.72,-45.3"/>
</g>
</g>
</svg>
